<?xml version="1.0" encoding="UTF-8" standalone="no"?>
<!-- Created with Inkscape (http://www.inkscape.org/) -->

<svg
   xmlns:dc="http://purl.org/dc/elements/1.1/"
   xmlns:cc="http://creativecommons.org/ns#"
   xmlns:rdf="http://www.w3.org/1999/02/22-rdf-syntax-ns#"
   xmlns:svg="http://www.w3.org/2000/svg"
   xmlns="http://www.w3.org/2000/svg"
   xmlns:sodipodi="http://sodipodi.sourceforge.net/DTD/sodipodi-0.dtd"
   xmlns:inkscape="http://www.inkscape.org/namespaces/inkscape"
   width="744.09448819"
   height="1052.3622047"
   id="svg3130"
   version="1.1"
   inkscape:version="0.48.5 r10040"
   sodipodi:docname="ejc-sql.svg">
  <defs
     id="defs3132" />
  <sodipodi:namedview
     id="base"
     pagecolor="#ffffff"
     bordercolor="#666666"
     borderopacity="1.0"
     inkscape:pageopacity="0.0"
     inkscape:pageshadow="2"
     inkscape:zoom="0.49497475"
     inkscape:cx="57.669829"
     inkscape:cy="350.6524"
     inkscape:document-units="px"
     inkscape:current-layer="layer1"
     showgrid="false"
     inkscape:window-width="1364"
     inkscape:window-height="741"
     inkscape:window-x="1"
     inkscape:window-y="1"
     inkscape:window-maximized="0" />
  <metadata
     id="metadata3135">
    <rdf:RDF>
      <cc:Work
         rdf:about="">
        <dc:format>image/svg+xml</dc:format>
        <dc:type
           rdf:resource="http://purl.org/dc/dcmitype/StillImage" />
      </cc:Work>
    </rdf:RDF>
  </metadata>
  <g
     inkscape:label="Layer 1"
     inkscape:groupmode="layer"
     id="layer1">
    <path
       style="fill:none;stroke:#696969;stroke-width:9.60000038000000089;stroke-linecap:round;stroke-linejoin:round;stroke-miterlimit:4;stroke-opacity:1;stroke-dasharray:none"
       d="m 120.5653,935.51719 c 0.71428,-86.26838 0.71428,-87.32043 0.71428,-87.32043"
       id="path5024-9"
       inkscape:connector-curvature="0" />
    <path
       sodipodi:type="arc"
       style="fill:#000000;fill-opacity:0;stroke:#696969;stroke-width:4.45915650999999968;stroke-linecap:round;stroke-linejoin:round;stroke-miterlimit:4;stroke-opacity:1;stroke-dasharray:none"
       id="path3046"
       sodipodi:cx="101.66277"
       sodipodi:cy="68.627701"
       sodipodi:rx="101.23651"
       sodipodi:ry="42.552761"
       d="M 123.44178,27.071295 A 101.23651,42.552761 0 1 1 17.508087,92.281574"
       transform="matrix(2.7829913,0,0,1.6654253,117.50173,649.84231)"
       sodipodi:start="4.9292139"
       sodipodi:end="8.8353668"
       sodipodi:open="true" />
    <path
       sodipodi:type="arc"
       style="fill:#000000;fill-opacity:0;stroke:#696969;stroke-width:4.45915650999999968;stroke-linecap:round;stroke-linejoin:round;stroke-miterlimit:4;stroke-opacity:1;stroke-dasharray:none"
       id="path3046-3"
       sodipodi:cx="101.66277"
       sodipodi:cy="68.627701"
       sodipodi:rx="101.23651"
       sodipodi:ry="42.552761"
       d="M 202.89928,68.627701 A 101.23651,42.552761 0 0 1 5.7366395,82.228536"
       transform="matrix(2.7829913,0,0,1.6654253,117.09761,703.48714)"
       sodipodi:start="0"
       sodipodi:end="2.8162612"
       sodipodi:open="true" />
    <path
       sodipodi:type="arc"
       style="fill:#000000;fill-opacity:0;stroke:#696969;stroke-width:4.45915650999999968;stroke-linecap:round;stroke-linejoin:round;stroke-miterlimit:4;stroke-opacity:1;stroke-dasharray:none"
       id="path3046-3-5"
       sodipodi:cx="101.66277"
       sodipodi:cy="68.627701"
       sodipodi:rx="101.23651"
       sodipodi:ry="42.552761"
       d="M 202.89928,68.627701 A 101.23651,42.552761 0 0 1 1.6216138,75.147531"
       transform="matrix(2.7829913,0,0,1.6654253,116.76997,758.06222)"
       sodipodi:start="0"
       sodipodi:end="2.9877692"
       sodipodi:open="true" />
    <path
       sodipodi:type="arc"
       style="fill:#000000;fill-opacity:0;stroke:#696969;stroke-width:4.45915650999999968;stroke-linecap:round;stroke-linejoin:round;stroke-miterlimit:4;stroke-opacity:1;stroke-dasharray:none"
       id="path3046-6"
       sodipodi:cx="101.66277"
       sodipodi:cy="68.627701"
       sodipodi:rx="101.23651"
       sodipodi:ry="42.552761"
       d="m 95.462732,26.154816 a 101.23651,42.552761 0 0 1 10.870438,-0.03457"
       transform="matrix(2.7829913,0,0,1.6654253,117.58191,648.8662)"
       sodipodi:start="4.6511075"
       sodipodi:end="4.7585389"
       sodipodi:open="true" />
    <g
       id="g4289"
       transform="matrix(0.32,0,0,0.32,-332.14309,168.05136)">
      <path
         sodipodi:nodetypes="cccscc"
         inkscape:connector-curvature="0"
         id="path3075"
         d="m 1773.5274,247.588 c 0.9605,0.96057 32.5083,-97.94965 32.1028,-125.42091 2.5632,-63.571436 -51.866,-54.403186 -85.8783,-7.72131 -33.7583,46.21443 -56.9759,97.76237 -65.2791,173.78998 -2.1589,19.76816 -1.0926,40.05979 -0.4054,53.22299 10.8068,154.98012 75.2393,8.74455 119.46,-93.87075 z"
         style="fill:none;stroke:#11bb11;stroke-width:30;stroke-linecap:butt;stroke-linejoin:miter;stroke-miterlimit:4;stroke-opacity:1;stroke-dasharray:none" />
      <path
         sodipodi:nodetypes="cccccsccccccccccccccc"
         inkscape:connector-curvature="0"
         id="path3818"
         d="m 1675.6684,408.85993 c 31.5125,-6.04952 44.4449,-16.22793 100.6757,-16.78447 108.3318,-4.3656 156.6754,39.19942 189.5019,60.31211 63.8858,52.61795 113.9858,112.04889 162.4945,181.58165 40.8504,52.77648 64.344,172.03122 69.5571,222.60752 2.2387,18.23587 -0.1585,50.89197 -5.1989,84.5007 -3.9573,26.38668 -8.8289,50.50069 -11.9665,59.08846 -15.6311,56.4115 -68.3595,108.7715 -128.3626,147.6318 -75.5092,42.6921 -144.3687,81.5708 -208.7711,128.4279 -30.6657,20.1421 -44.3249,31.7094 -80.3773,75.4562 -37.8989,52.2436 -47.2909,67.2231 -60.693,116.4651 -12.4245,58.4742 -12.1382,100.6555 4.8215,125.1061 -86.8764,19.1958 -120.253,39.4077 -168.4759,57.172 -182.5349,83.1527 -150.9868,80.8333 -231.6707,134.31 l -27.886,24.6053 -55.772,-65.6141 c 5.6314,-25.2122 -1.8378,-35.8684 -9.8421,-45.9299 -15.494,-11.2751 -20.7801,-13.6992 -33.0885,-11.3006 -11.985,4.5986 -17.2052,14.5263 -15.0446,24.4234 3.7616,26.5591 21.7255,30.1902 27.2975,34.1944 13.4605,3.6271 19.5216,4.9039 28.8718,-3.3468"
         style="fill:none;stroke:#11bb11;stroke-width:30;stroke-linecap:round;stroke-linejoin:round;stroke-miterlimit:4;stroke-opacity:1;stroke-dasharray:none" />
      <path
         sodipodi:nodetypes="ccc"
         inkscape:connector-curvature="0"
         id="path3820"
         d="m 2339.2313,558.16707 c 7.4811,2.42702 19.2945,2.46059 36.7746,25.21232 5.7448,10.78853 16.6977,31.65606 14.3511,46.98657"
         style="fill:none;stroke:#11bb11;stroke-width:13.54131603000000084;stroke-linecap:butt;stroke-linejoin:miter;stroke-miterlimit:4;stroke-opacity:1;stroke-dasharray:none" />
      <path
         transform="translate(691.66077,245.90208)"
         d="m 1669.0589,341.17032 c 0,3.73701 -2.1114,6.76645 -4.716,6.76645 -2.6046,0 -4.716,-3.02944 -4.716,-6.76645 0,-3.73701 2.1114,-6.76646 4.716,-6.76646 2.6046,0 4.716,3.02945 4.716,6.76646 z"
         sodipodi:ry="6.7664552"
         sodipodi:rx="4.7160144"
         sodipodi:cy="341.17032"
         sodipodi:cx="1664.3429"
         id="path3822"
         style="fill:none;stroke:#11bb11;stroke-width:15;stroke-miterlimit:4;stroke-opacity:1;stroke-dasharray:none"
         sodipodi:type="arc" />
      <path
         sodipodi:nodetypes="cccccccccccccccccccccccccc"
         inkscape:connector-curvature="0"
         id="path3826"
         d="m 1808.86,112.51301 c 17.2498,50.6718 53.446,99.92804 95.7333,147.78833 38.9508,42.37082 76.8604,81.29049 120.0089,114.06013 60.9901,55.02627 114.5241,82.91563 172.2459,103.52149 37.3364,15.1789 104.781,13.39914 133.9689,11.59904 41.0204,-3.37586 97.4838,5.22388 134.549,22.03818 28.3678,13.49416 68.0474,43.41627 102.0716,114.83056 26.3764,69.58459 49.3253,151.1871 35.377,217.4821 -12.3053,49.42292 -40.6048,87.54098 -89.2714,80.85359 18.0329,-23.2988 34.0813,-44.4858 32.1461,-68.67459 0.4754,-16.3311 -13.8758,-48.17387 -29.2875,-55.38545 -22.2397,-11.51538 -44.8374,-3.82337 -49.5508,0.0206 -61.0574,36.48741 -76.0635,96.76092 -110.5161,153.95673 l -32.4773,57.99518 c 26.2782,-13.03401 38.5377,-27.74761 82.3532,-17.39852 29.7985,0.25981 54.4188,44.09372 61.475,61.47492 8.3453,24.8518 13.5199,55.6722 11.599,94.5323 l -8.1193,261.5584 c -8.3222,115.5823 -8.3009,216.1464 -1.1599,303.895 8.1618,90.01 16.9384,90.6065 24.0886,117.9002 7.3263,9.6524 11.4893,15.0173 28.9333,24.6395 l 11.9328,4.7682 c 54.0453,16.0441 57.9888,19.3423 95.6181,30.0443 17.782,8.9531 28.0985,21.2578 22.2855,43.2746 -12.1238,18.8381 -21.3122,12.7241 -29.9245,12.8244 -59.3563,-21.2327 -88.2683,-35.0701 -124.5004,-52.5823"
         style="fill:none;stroke:#11bb11;stroke-width:30;stroke-linecap:round;stroke-linejoin:round;stroke-miterlimit:4;stroke-opacity:1;stroke-dasharray:none" />
      <path
         sodipodi:nodetypes="cccsc"
         inkscape:connector-curvature="0"
         id="path3042"
         d="m 2615.3859,1948.5023 c 9.1524,8.5516 8.323,19.8187 3.8944,30.049 -6.3517,11.1266 -15.8015,10.0764 -24.4251,8.5434 -2.5291,-0.3946 -13.9767,-4.6832 -15.9999,-5.6188 -45.9596,-21.2551 -74.4755,-28.301 -107.2917,-58.9367"
         style="fill:none;stroke:#11bb11;stroke-width:30;stroke-linecap:round;stroke-linejoin:miter;stroke-miterlimit:4;stroke-opacity:1;stroke-dasharray:none" />
      <path
         sodipodi:nodetypes="ccccccccccccsc"
         inkscape:connector-curvature="0"
         id="path3044"
         d="m 2569.6596,1977.2714 c 6.8338,9.731 15.7733,17.686 16.1011,31.0341 -0.048,10.0927 -7.1524,15.8305 -15.5627,17.5467 -15.1383,2.5281 -26.9176,1.078 -38.8816,-6.9569 -34.3733,-17.9813 -64.7696,-39.9396 -92.9875,-64.0763 -12.2257,-10.042 -31.1369,-12.5829 -38.0357,-10.3547 -10.2213,0.6447 -43.9091,24.4578 -65.784,29.9468 -13.157,2.406 -28.9879,1.0007 -47.5702,-12.7128 -11.9737,-9.7487 -8.1293,-27.3899 -0.9579,-36.5081 7.1211,-11.5533 42.339,-2.7374 58.13,-13.1229 14.5583,-9.2981 28.804,-55.4992 24.0357,-78.3662 -17.1545,-53.4527 -25.4283,-111.4022 -26.9611,-186.4293 -2.4025,-74.4524 -9.4277,-140.6199 -10.2255,-206.1597 -0.9263,-76.1016 -3.6075,-153.6791 -15.367,-231.0394"
         style="fill:none;stroke:#11bb11;stroke-width:30;stroke-linecap:round;stroke-linejoin:round;stroke-miterlimit:4;stroke-opacity:1;stroke-dasharray:none" />
      <path
         sodipodi:nodetypes="cccccccccccccccccccc"
         inkscape:connector-curvature="0"
         id="path3814"
         d="m 2320.9412,1264.7431 c -11.0724,18.5113 -18.8641,40.457 -29.9365,66.0243 -5.5045,17.4671 -11.5092,34.2641 -15.3783,49.0055 -20.7735,60.7037 -30.8974,97.9508 -43.2643,146.4015 -10.4833,41.7369 -16.7049,81.4311 -16.8136,123.6416 0.081,17.9026 0.2779,36.1941 -1.2303,48.8005 -2.1638,17.1887 -1.4475,27.6924 -10.2522,51.261 -11.4827,26.5024 -21.6821,35.8651 -36.0877,50.4408 -13.3965,11.0039 -24.5226,21.1951 -42.0341,30.1415 -17.231,11.0609 -27.1591,10.7619 -39.9836,14.9682 -59.4996,10.8358 -90.915,1.8675 -147.2216,5.5362 -73.0363,5.0234 -105.5564,15.4749 -186.5902,38.3433 -47.4184,17.0719 -74.6322,19.6128 -137.7896,53.7215 -41.829,26.7924 -89.8022,48.1234 -125.487,80.3773 -13.1228,14.0797 -24.1712,18.4788 -39.3685,42.2391 -13.9164,22.196 -15.9153,30.9927 -31.7818,54.9518 -9.3178,11.7548 -21.8905,23.6071 -44.9047,21.1195 -15.7783,-2.5303 -23.2219,-15.1499 -28.7061,-30.1414 l -23.6899,-76.9267 c -11.1597,-25.4901 -23.3669,-36.0116 -39.4637,-48.9704"
         style="fill:none;stroke:#11bb11;stroke-width:30;stroke-linecap:round;stroke-linejoin:round;stroke-miterlimit:4;stroke-opacity:1;stroke-dasharray:none" />
      <path
         sodipodi:nodetypes="cc"
         inkscape:connector-curvature="0"
         id="path3816"
         d="m 1409.0326,2060.4672 c 4.4551,18.6922 7.3769,39.4229 5.905,63.5253"
         style="fill:none;stroke:#11bb11;stroke-width:30;stroke-linecap:round;stroke-linejoin:miter;stroke-miterlimit:4;stroke-opacity:1;stroke-dasharray:none" />
      <path
         sodipodi:nodetypes="cc"
         inkscape:connector-curvature="0"
         id="path3819"
         d="m 1701.9191,1587.3454 c 16.4227,19.1758 27.0979,40.1288 47.7692,67.8017"
         style="fill:none;stroke:#11bb11;stroke-width:30;stroke-linecap:round;stroke-linejoin:round;stroke-miterlimit:4;stroke-opacity:1;stroke-dasharray:none" />
      <path
         sodipodi:nodetypes="cccccc"
         inkscape:connector-curvature="0"
         id="path3821"
         d="m 1887.1536,1641.8472 c -48.7988,1.1639 -77.3986,4.3818 -132.8091,18.5584 -35.8423,14.4192 -75.0911,25.7805 -106.7113,49.2959 -40.2661,23.1421 -71.7382,48.1186 -105.5513,75.3938 -80.3798,67.9499 -114.0412,99.0601 -143.8282,136.8688 12.9677,20.7182 23.8991,30.0485 31.8974,67.8545"
         style="fill:none;stroke:#11bb11;stroke-width:30;stroke-linecap:round;stroke-linejoin:round;stroke-miterlimit:4;stroke-opacity:1;stroke-dasharray:none" />
      <path
         sodipodi:nodetypes="cccsccsc"
         inkscape:connector-curvature="0"
         id="path5295"
         d="m 1164.2874,1721.6839 c -12.7071,-4.2069 -21.6244,-2.2869 -29.2964,4.7511 -6.2549,5.2151 -8.4949,7.7203 -8.641,18.8775 -0.054,4.7223 2.4862,7.5376 5.8693,12.1141 6.8723,9.2965 11.295,15.2638 17.7356,17.7005 13.3294,5.4642 19.8187,4.9273 28.5861,3.291 7.5325,-3.4838 11.1593,-8.5461 13.673,-14.2734 2.7314,-6.2234 1.7289,-16.2386 -3.1248,-21.943"
         style="fill:none;stroke:#11bb11;stroke-width:30;stroke-linecap:round;stroke-linejoin:miter;stroke-miterlimit:4;stroke-opacity:1;stroke-dasharray:none" />
      <path
         sodipodi:nodetypes="cccccccc"
         inkscape:connector-curvature="0"
         id="path5297"
         d="m 1136.0119,1766.5533 c -12.463,-3.2009 -19.5972,0.573 -27.7015,5.3664 -9.9724,6.8572 -12.4677,12.0451 -14.0456,19.8893 -1.5684,16.9562 7.1367,27.9553 18.0937,38.0884 7.3321,6.1143 16.2225,6.2058 24.9201,7.6777 14.5953,0.1987 22.1811,-2.8497 28.3446,-8.7453 6.426,-9.2147 8.7574,-18.22 7.1122,-26.3409 -2.7922,-10.0085 -7.0056,-13.2312 -11.5516,-21.486"
         style="fill:none;stroke:#11bb11;stroke-width:30;stroke-linecap:round;stroke-linejoin:round;stroke-miterlimit:4;stroke-opacity:1;stroke-dasharray:none" />
      <path
         sodipodi:nodetypes="cc"
         inkscape:connector-curvature="0"
         id="path5299"
         d="m 1157.2928,1835.1466 c 34.2408,6.5754 59.4006,29.4186 94.859,59.3221"
         style="fill:none;stroke:#11bb11;stroke-width:30;stroke-linecap:round;stroke-linejoin:miter;stroke-miterlimit:4;stroke-opacity:1;stroke-dasharray:none" />
      <path
         sodipodi:nodetypes="cc"
         inkscape:connector-curvature="0"
         id="path5301"
         d="m 1382.015,1999.0978 c -15.4284,-32.0156 -27.2202,-43.6995 -45.4644,-52.8108"
         style="fill:none;stroke:#11bb11;stroke-width:30;stroke-linecap:round;stroke-linejoin:miter;stroke-miterlimit:4;stroke-opacity:1;stroke-dasharray:none" />
      <path
         sodipodi:nodetypes="cscccccc"
         inkscape:connector-curvature="0"
         id="path5303"
         d="m 1336.4317,1889.2868 c -6.8224,-6.4279 -14.6001,-8.2244 -22.1812,-8.4536 -10.1543,-0.3071 -13.9625,1.2352 -20.431,5.384 -6.2369,5.0908 -9.6118,10.8759 -9.6723,20.985 0.8591,11.9639 5.6584,20.5501 12.0873,25.9101 9.0497,7.8087 18.1908,16.4314 37.0444,12.4391 10.4095,-6.5322 12.3077,-10.0062 13.7555,-31.3238 0.1557,-10.3601 -4.4955,-19.335 -10.7785,-24.9235"
         style="fill:none;stroke:#11bb11;stroke-width:30;stroke-linecap:round;stroke-linejoin:round;stroke-miterlimit:4;stroke-opacity:1;stroke-dasharray:none" />
      <path
         sodipodi:nodetypes="cc"
         inkscape:connector-curvature="0"
         id="path5305"
         d="m 1395.3539,1916.1646 c -14.285,-11.9222 -31.7245,-18.7185 -52.1957,-20.5883"
         style="fill:none;stroke:#11bb11;stroke-width:30;stroke-linecap:round;stroke-linejoin:miter;stroke-miterlimit:4;stroke-opacity:1;stroke-dasharray:none" />
      <path
         sodipodi:nodetypes="ccccccc"
         inkscape:connector-curvature="0"
         id="path5307"
         d="m 1290.6726,1895.2863 c -8.1168,-4.9524 -16.6279,-6.3566 -25.5179,-4.3496 -11.7711,2.8857 -22.5385,6.3207 -28.2727,25.8079 -2.071,14.3983 -0.3083,22.8287 5.0746,31.8974 5.2214,7.2949 9.9748,11.9233 21.4582,14.7888 10.6254,0.9998 16.4963,0.6755 26.3878,-4.9297 6.9851,-4.6246 14.6128,-13.8243 13.6289,-21.4582"
         style="fill:none;stroke:#11bb11;stroke-width:30;stroke-linecap:butt;stroke-linejoin:round;stroke-miterlimit:4;stroke-opacity:1;stroke-dasharray:none" />
      <path
         sodipodi:nodetypes="cccccccc"
         inkscape:connector-curvature="0"
         id="path5309"
         d="m 1236.157,1921.6742 c -6.8596,-1.2794 -17.0343,-5.4268 -24.068,-1.9595 -8.8073,6.1143 -12.4115,14.8519 -13.9043,24.0826 -2.0529,9.4152 -1.1877,19.4556 2.7154,27.7879 3.3481,6.9521 7.6248,10.2868 14.2586,16.8041 6.6199,6.3872 12.3885,9.6918 26.3878,10.808 9.2477,-0.5786 14.2778,-5.6797 17.7322,-13.538 2.2624,-5.719 4.3844,-12.2932 4.1653,-22.1291"
         style="fill:none;stroke:#11bb11;stroke-width:30;stroke-linecap:round;stroke-linejoin:round;stroke-miterlimit:4;stroke-opacity:1;stroke-dasharray:none" />
    </g>
    <path
       sodipodi:type="arc"
       style="fill:#000000;fill-opacity:0;stroke:#696969;stroke-width:4.45915650999999968;stroke-linecap:round;stroke-linejoin:round;stroke-miterlimit:4;stroke-opacity:1;stroke-dasharray:none"
       id="path3046-3-5-3"
       sodipodi:cx="101.66277"
       sodipodi:cy="68.627701"
       sodipodi:rx="101.23651"
       sodipodi:ry="42.552761"
       d="M 202.89928,68.627701 A 101.23651,42.552761 0 0 1 1.3820778,74.461262"
       transform="matrix(2.7829913,0,0,1.6654253,116.75369,812.63365)"
       sodipodi:start="0"
       sodipodi:end="3.0040695"
       sodipodi:open="true" />
    <path
       style="fill:none;stroke:#696969;stroke-width:9.54263401000000044;stroke-linecap:round;stroke-linejoin:round;stroke-miterlimit:4;stroke-opacity:1;stroke-dasharray:none"
       d="m 681.30095,928.30174 c 0.71428,-160.8549 0.71428,-162.81655 0.71428,-162.81655"
       id="path5024"
       inkscape:connector-curvature="0" />
  </g>
</svg>
